<svg width="67" height="64" viewBox="0 0 67 64" fill="none" xmlns="http://www.w3.org/2000/svg">
<path d="M46.5561 4.07115V16.6423C50.6469 19.0097 53.7616 22.7559 55.3423 27.2102H59.7751C60.6518 27.2102 61.4926 27.5585 62.1125 28.1784C62.7324 28.7983 63.0807 29.6391 63.0807 30.5158V37.127C63.0807 38.0037 62.7324 38.8445 62.1125 39.4644C61.4926 40.0843 60.6518 40.4326 59.7751 40.4326H55.339C54.2284 43.5729 52.3409 46.3826 49.8584 48.6073V55.3077C49.8584 56.6227 49.336 57.8839 48.4061 58.8138C47.4762 59.7437 46.2151 60.2661 44.9 60.2661C43.585 60.2661 42.3238 59.7437 41.3939 58.8138C40.464 57.8839 39.9416 56.6227 39.9416 55.3077V53.3805C38.8494 53.5641 37.7436 53.6559 36.6361 53.6549H23.4137C22.3061 53.6559 21.2004 53.5641 20.1081 53.3805V55.3077C20.1081 56.6227 19.5857 57.8839 18.6559 58.8138C17.726 59.7437 16.4648 60.2661 15.1498 60.2661C13.8347 60.2661 12.5735 59.7437 11.6437 58.8138C10.7138 57.8839 10.1914 56.6227 10.1914 55.3077V48.6073C7.19641 45.9296 5.08518 42.4056 4.13716 38.5016C3.18914 34.5977 3.44903 30.4979 4.88243 26.7449C6.31583 22.9919 8.85515 19.7627 12.1643 17.4846C15.4734 15.2066 19.3963 13.9873 23.4137 13.9879H31.6777L46.5561 4.07115Z" stroke="#3F3F3F" stroke-width="6.61117" stroke-linecap="round" stroke-linejoin="round"/>
</svg>
