<svg width="80" height="81" viewBox="0 0 80 81" fill="none" xmlns="http://www.w3.org/2000/svg">
<path d="M30.0841 17.3761H23.473C21.7196 17.3761 20.038 18.0726 18.7982 19.3124C17.5583 20.5523 16.8618 22.2338 16.8618 23.9872V63.6542C16.8618 65.4076 17.5583 67.0892 18.7982 68.329C20.038 69.5688 21.7196 70.2654 23.473 70.2654H56.5288C58.2822 70.2654 59.9638 69.5688 61.2036 68.329C62.4434 67.0892 63.14 65.4076 63.14 63.6542V23.9872C63.14 22.2338 62.4434 20.5523 61.2036 19.3124C59.9638 18.0726 58.2822 17.3761 56.5288 17.3761H49.9176" stroke="#3F3F3F" stroke-width="6.61117" stroke-linecap="round" stroke-linejoin="round"/>
<path d="M30.0847 17.3761C30.0847 15.6227 30.7812 13.9411 32.021 12.7013C33.2609 11.4614 34.9424 10.7649 36.6958 10.7649H43.307C45.0604 10.7649 46.742 11.4614 47.9818 12.7013C49.2216 13.9411 49.9182 15.6227 49.9182 17.3761C49.9182 19.1294 49.2216 20.811 47.9818 22.0509C46.742 23.2907 45.0604 23.9872 43.307 23.9872H36.6958C34.9424 23.9872 33.2609 23.2907 32.021 22.0509C30.7812 20.811 30.0847 19.1294 30.0847 17.3761ZM39.9783 56.2167L49.0587 46.9114C50.1819 45.7418 50.8092 44.1829 50.8092 42.5613C50.8092 40.9396 50.1819 39.3808 49.0587 38.2111C48.5112 37.6412 47.8542 37.1878 47.1271 36.8781C46.4 36.5684 45.6179 36.4087 44.8276 36.4087C44.0373 36.4087 43.2551 36.5684 42.528 36.8781C41.801 37.1878 41.1439 37.6412 40.5964 38.2111L39.9915 38.8326L39.3866 38.2078C38.8391 37.6379 38.182 37.1845 37.455 36.8748C36.7279 36.565 35.9457 36.4054 35.1554 36.4054C34.3651 36.4054 33.583 36.565 32.8559 36.8748C32.1288 37.1845 31.4718 37.6379 30.9243 38.2078C29.8011 39.3775 29.1738 40.9363 29.1738 42.558C29.1738 44.1796 29.8011 45.7384 30.9243 46.9081L39.975 56.2464L39.9783 56.2167Z" stroke="#3F3F3F" stroke-width="6.61117" stroke-linecap="round" stroke-linejoin="round"/>
</svg>
