<svg width="18" height="33" viewBox="0 0 18 33" fill="none" xmlns="http://www.w3.org/2000/svg">
<path id="arrow vector / active" d="M16.4987 17.2923L1.10819 26.099C0.697545 26.3405 0.423073 26.7883 0.419238 27.2647L0.406173 32.123C0.406041 32.5377 0.860717 32.8002 1.2198 32.5927L16.7254 23.7248C17.136 23.4833 17.4105 23.0355 17.4144 22.5591L17.4535 11.0793C17.4573 10.6029 17.2006 10.1356 16.7749 9.90579L1.33673 0.944675C0.977777 0.737433 0.522475 1.00103 0.522342 1.41574L0.497312 6.26711C0.493477 6.7435 0.750164 7.21077 1.17585 7.44058L16.5114 16.3584C16.8635 16.5776 16.8509 17.0968 16.4987 17.2923Z" fill="currentColor"/>
</svg>
