<svg viewBox="0 0 32 32" fill="none"
    xmlns="http://www.w3.org/2000/svg">
    <g id="Group">
        <path id="Vector" d="M2.66666 16C2.66666 9.71511 2.66666 6.57125 4.61894 4.61897C6.57123 2.66669 9.71368 2.66669 16 2.66669C22.2849 2.66669 25.4288 2.66669 27.381 4.61897C29.3333 6.57125 29.3333 9.7137 29.3333 16C29.3333 22.2849 29.3333 25.4288 27.381 27.3811C25.4288 29.3334 22.2863 29.3334 16 29.3334C9.71508 29.3334 6.57123 29.3334 4.61894 27.3811C2.66666 25.4288 2.66666 22.2863 2.66666 16Z" stroke="#F1F1F2" stroke-width="3.36842" stroke-linecap="round" stroke-linejoin="round"/>
        <path id="Vector_2" d="M23.7301 8.28076H23.7161M22.3154 16.0001C22.3154 17.6751 21.65 19.2816 20.4655 20.466C19.2811 21.6504 17.6746 22.3158 15.9996 22.3158C14.3245 22.3158 12.7181 21.6504 11.5336 20.466C10.3492 19.2816 9.68379 17.6751 9.68379 16.0001C9.68379 14.325 10.3492 12.7186 11.5336 11.5341C12.7181 10.3497 14.3245 9.68427 15.9996 9.68427C17.6746 9.68427 19.2811 10.3497 20.4655 11.5341C21.65 12.7186 22.3154 14.325 22.3154 16.0001Z" stroke="#F1F1F2" stroke-width="3.36842" stroke-linecap="round" stroke-linejoin="round"/>
    </g>
</svg>
