<svg viewBox="0 0 25 25" fill="none"
    xmlns="http://www.w3.org/2000/svg">
    <path d="M2.12354 3.40349C2.12354 2.6137 2.77982 1.97363 3.58958 1.97363L20.6206 1.97363C21.4304 1.97363 22.0867 2.6137 22.0867 3.40349L22.0867 20.5069C22.0867 21.2967 21.4304 21.9368 20.6206 21.9368L3.58958 21.9368C2.77982 21.9368 2.12354 21.2967 2.12354 20.5069L2.12354 3.40349ZM8.29089 18.6853L8.29089 9.67067L5.29518 9.67067L5.29518 18.6853L8.29089 18.6853ZM6.79366 8.43919C7.83798 8.43919 8.48803 7.74797 8.48803 6.88207C8.46931 5.99745 7.83923 5.32494 6.81362 5.32494C5.78802 5.32494 5.118 5.9987 5.118 6.88207C5.118 7.74797 5.76805 8.43919 6.7737 8.43919L6.79366 8.43919ZM12.9173 18.6853L12.9173 13.6508C12.9173 13.3813 12.9373 13.1118 13.0172 12.9197C13.233 12.3819 13.7259 11.8242 14.5543 11.8242C15.6386 11.8242 16.0715 12.6502 16.0715 13.8629L16.0715 18.6853L19.0672 18.6853L19.0672 13.5148C19.0672 10.7449 17.59 9.45731 15.6186 9.45731C14.029 9.45731 13.3166 10.3307 12.9173 10.9458L12.9173 10.977L12.8974 10.977L12.9173 10.9458L12.9173 9.67067L9.92288 9.67067C9.96031 10.5166 9.92288 18.6853 9.92288 18.6853L12.9173 18.6853Z" fill="currentColor"/>
</svg>
