<svg width="25" height="25" viewBox="0 0 25 25" fill="currentFil;l" xmlns="http://www.w3.org/2000/svg">
<g id="icons">
<path id="Vector" d="M20.1413 15.1493L16.3725 13.4605L16.3621 13.4557C16.1665 13.372 15.953 13.3384 15.7411 13.358C15.5292 13.3775 15.3255 13.4496 15.1485 13.5677C15.1276 13.5815 15.1076 13.5964 15.0885 13.6125L13.1413 15.2725C11.9077 14.6733 10.6341 13.4093 10.0349 12.1917L11.6973 10.2149C11.7133 10.1949 11.7285 10.1749 11.7429 10.1533C11.8584 9.97671 11.9285 9.77433 11.9469 9.56412C11.9654 9.35392 11.9315 9.14243 11.8485 8.94846L11.8485 8.93886L10.1549 5.16362C10.0451 4.91023 9.85624 4.69915 9.61661 4.56189C9.37698 4.42463 9.09938 4.36854 8.82526 4.40202C7.74122 4.54466 6.74618 5.07704 6.02598 5.89971C5.30578 6.72238 4.90967 7.77908 4.91163 8.87246C4.91163 15.2245 10.0797 20.3926 16.4317 20.3926C17.5251 20.3945 18.5818 19.9984 19.4045 19.2782C20.2271 18.558 20.7595 17.563 20.9021 16.4789C20.9357 16.2049 20.8797 15.9274 20.7426 15.6877C20.6055 15.4481 20.3946 15.2593 20.1413 15.1493ZM16.4317 19.1126C13.7168 19.1096 11.1139 18.0298 9.19416 16.11C7.27442 14.1903 6.1946 11.5874 6.19164 8.87246C6.18863 8.09124 6.47008 7.33564 6.98343 6.74676C7.49678 6.15789 8.20693 5.776 8.98126 5.67243C8.98094 5.67562 8.98094 5.67884 8.98126 5.68203L10.6613 9.44207L9.00766 11.4213C8.99084 11.4406 8.97559 11.4612 8.96206 11.4829C8.84167 11.6676 8.77104 11.8803 8.75703 12.1004C8.74301 12.3204 8.78608 12.5404 8.88206 12.7389C9.60686 14.2213 11.1005 15.7037 12.5989 16.4277C12.7989 16.5228 13.0201 16.5644 13.2409 16.5484C13.4618 16.5324 13.6747 16.4594 13.8589 16.3365C13.8795 16.3228 13.8992 16.3078 13.9181 16.2917L15.8629 14.6325L19.6229 16.3165L19.6317 16.3165C19.5294 17.092 19.1481 17.8035 18.5591 18.3182C17.9701 18.8328 17.2138 19.1152 16.4317 19.1126Z" fill="#3FC1C9"/>
</g>
</svg>
