<svg width="54" height="78" viewBox="0 0 54 78" fill="none" xmlns="http://www.w3.org/2000/svg">
<path fill-rule="evenodd" clip-rule="evenodd" d="M4.48379 0.694698C2.92926 1.58345 1.53106 3.23068 0.720079 5.12812L0.110007 6.55584L0.0335362 37.7611C-0.0519643 72.5731 -0.128435 71.0858 1.88971 73.9116C3.70639 76.4548 6.45482 77.5612 8.89059 76.7299C10.1474 76.3013 50.7294 46.4909 51.8369 45.1831C52.206 44.7469 52.8451 43.6676 53.2571 42.7842C53.8909 41.4253 54.0052 40.7657 53.9998 38.501C53.9919 35.329 53.3692 33.5254 51.6402 31.6683C50.3306 30.262 10.8771 1.15085 9.33897 0.456269C7.82113 -0.229035 5.9373 -0.136591 4.48379 0.694698Z" fill="currentColor"/>
</svg>
