<svg width="326" height="354" viewBox="0 0 326 354" fill="none" xmlns="http://www.w3.org/2000/svg">
<path d="M273.723 281.276L47.1561 280.57C40.9802 280.57 35.3337 283.924 32.1575 289.219L0.92508 342.88C-1.72174 347.469 1.63092 353.294 6.92456 353.294L234.904 354C241.079 354 246.726 350.646 249.902 345.351L323.66 218.437C326.66 213.141 326.836 206.434 323.837 201.138L210.553 3.44204C207.906 -1.14732 201.201 -1.14732 198.554 3.44204L167.322 57.1025C164.322 62.3979 164.145 69.1055 167.145 74.4009L279.723 270.862C282.37 275.451 279.017 281.276 273.723 281.276Z" fill="#3FC1C9" fill-opacity="0.2"/>
</svg>
