<svg width="382" height="414" viewBox="0 0 382 414" fill="none" xmlns="http://www.w3.org/2000/svg">
<path d="M61.2566 85.0501L326.743 85.8759C333.98 85.8759 340.597 81.9536 344.319 75.7607L380.916 13.0052C384.017 7.638 380.089 0.825732 373.886 0.825732L106.745 0C99.5082 0 92.8917 3.92222 89.1699 10.1152L2.74192 158.54C-0.773092 164.733 -0.979857 172.577 2.53516 178.77L135.279 409.975C138.38 415.342 146.237 415.342 149.339 409.975L185.936 347.219C189.451 341.026 189.658 333.182 186.143 326.989L54.2265 97.2296C51.125 91.8624 55.0536 85.0501 61.2566 85.0501Z" fill="#3FC1C9" fill-opacity="0.2"/>
</svg>
