<svg viewBox="0 0 25 25" fill="none"
    xmlns="http://www.w3.org/2000/svg">
    <path d="M10.1328 15.0308L15.3228 12.0308L10.1328 9.03076L10.1328 15.0308ZM21.6928 7.20076C21.8228 7.67076 21.9128 8.30076 21.9728 9.10076C22.0428 9.90076 22.0728 10.5908 22.0728 11.1908L22.1328 12.0308C22.1328 14.2208 21.9728 15.8308 21.6928 16.8608C21.4428 17.7608 20.8628 18.3408 19.9628 18.5908C19.4928 18.7208 18.6328 18.8108 17.3128 18.8708C16.0128 18.9408 14.8228 18.9708 13.7228 18.9708L12.1328 19.0308C7.94281 19.0308 5.33281 18.8708 4.30281 18.5908C3.40281 18.3408 2.82281 17.7608 2.57281 16.8608C2.44281 16.3908 2.35281 15.7608 2.29281 14.9608C2.22281 14.1608 2.19281 13.4708 2.19281 12.8708L2.13281 12.0308C2.13281 9.84076 2.29281 8.23076 2.57281 7.20076C2.82281 6.30076 3.40281 5.72076 4.30281 5.47076C4.77281 5.34076 5.63281 5.25076 6.95281 5.19076C8.25281 5.12076 9.44281 5.09076 10.5428 5.09076L12.1328 5.03076C16.3228 5.03076 18.9328 5.19076 19.9628 5.47076C20.8628 5.72076 21.4428 6.30076 21.6928 7.20076Z" fill="white"/>
</svg>
